{
  "accessors": [
    {
      "bufferView": 2,
      "componentType": 5126,
      "count": 49005,
      "max": [
        1.528393030166626,
        4.3295249938964844,
        16.80702018737793
      ],
      "min": [
        -1.4801009893417358,
        0.78032398223876953,
        -0.050379998981952667
      ],
      "type": "VEC3"
    },
    {
      "bufferView": 2,
      "byteOffset": 588060,
      "componentType": 5126,
      "count": 49005,
      "max": [
        0.99999082088470459,
        0.99998235702514648,
        0.99932324886322021
      ],
      "min": [
        -0.99998641014099121,
        -0.99998772144317627,
        -0.99992752075195312
      ],
      "type": "VEC3"
    },
    {
      "bufferView": 3,
      "componentType": 5126,
      "count": 49005,
      "max": [
        0.99999403953552246,
        0.99918067455291748,
        0.99697601795196533,
        1
      ],
      "min": [
        -0.99980831146240234,
        -0.99999940395355225,
        -0.99883288145065308,
        1
      ],
      "type": "VEC4"
    },
    {
      "bufferView": 1,
      "componentType": 5126,
      "count": 49005,
      "max": [
        1,
        1
      ],
      "min": [
        0,
        0
      ],
      "type": "VEC2"
    },
    {
      "bufferView": 0,
      "componentType": 5125,
      "count": 258048,
      "max": [
        49004
      ],
      "min": [
        0
      ],
      "type": "SCALAR"
    },
    {
      "bufferView": 2,
      "byteOffset": 1176120,
      "componentType": 5126,
      "count": 48184,
      "max": [
        1.2811650037765503,
        -0.67800599336624146,
        17.050300598144531
      ],
      "min": [
        -1.2342809438705444,
        -4.888765811920166,
        -0.034506998956203461
      ],
      "type": "VEC3"
    },
    {
      "bufferView": 2,
      "byteOffset": 1754328,
      "componentType": 5126,
      "count": 48184,
      "max": [
        0.9999997615814209,
        0.9999992847442627,
        0.99977713823318481
      ],
      "min": [
        -0.99998736381530762,
        -0.99998807907104492,
        -1
      ],
      "type": "VEC3"
    },
    {
      "bufferView": 3,
      "byteOffset": 784080,
      "componentType": 5126,
      "count": 48184,
      "max": [
        0.99999940395355225,
        0.99992549419403076,
        0.94196349382400513,
        1
      ],
      "min": [
        -0.99997961521148682,
        -0.99998754262924194,
        -0.9928165078163147,
        1
      ],
      "type": "VEC4"
    },
    {
      "bufferView": 1,
      "byteOffset": 392040,
      "componentType": 5126,
      "count": 48184,
      "max": [
        1,
        1
      ],
      "min": [
        0,
        0
      ],
      "type": "VEC2"
    },
    {
      "bufferView": 0,
      "byteOffset": 1032192,
      "componentType": 5125,
      "count": 258006,
      "max": [
        48183
      ],
      "min": [
        0
      ],
      "type": "SCALAR"
    }
  ],
  "asset": {
    "extras": {
      "author": "FletchTech (https://sketchfab.com/FletchTech)",
      "license": "CC-BY-4.0 (http://creativecommons.org/licenses/by/4.0/)",
      "source": "https://sketchfab.com/3d-models/african-masks-0bdd071fe1034a54b4bdb68f418f7d73",
      "title": "African Masks"
    },
    "generator": "Sketchfab-6.34.0",
    "version": "2.0"
  },
  "bufferViews": [
    {
      "buffer": 0,
      "byteLength": 2064216,
      "byteOffset": 0,
      "name": "floatBufferViews",
      "target": 34963
    },
    {
      "buffer": 0,
      "byteLength": 777512,
      "byteOffset": 2064216,
      "byteStride": 8,
      "name": "floatBufferViews",
      "target": 34962
    },
    {
      "buffer": 0,
      "byteLength": 2332536,
      "byteOffset": 2841728,
      "byteStride": 12,
      "name": "floatBufferViews",
      "target": 34962
    },
    {
      "buffer": 0,
      "byteLength": 1555024,
      "byteOffset": 5174264,
      "byteStride": 16,
      "name": "floatBufferViews",
      "target": 34962
    }
  ],
  "buffers": [
    {
      "byteLength": 6729288,
      "uri": "scene.bin"
    }
  ],
  "images": [
    {
      "uri": "textures/Material.001_baseColor.png"
    },
    {
      "uri": "textures/Material.002_baseColor.png"
    }
  ],
  "materials": [
    {
      "doubleSided": true,
      "emissiveFactor": [
        0,
        0,
        0
      ],
      "name": "Material.001",
      "pbrMetallicRoughness": {
        "baseColorFactor": [
          1,
          1,
          1,
          1
        ],
        "baseColorTexture": {
          "index": 0,
          "texCoord": 0
        },
        "metallicFactor": 0.1114710366,
        "roughnessFactor": 0.47389481710000003
      }
    },
    {
      "doubleSided": true,
      "emissiveFactor": [
        0,
        0,
        0
      ],
      "name": "Material.002",
      "pbrMetallicRoughness": {
        "baseColorFactor": [
          1,
          1,
          1,
          1
        ],
        "baseColorTexture": {
          "index": 1,
          "texCoord": 0
        },
        "metallicFactor": 0.1053734756,
        "roughnessFactor": 0.47999237800000005
      }
    }
  ],
  "meshes": [
    {
      "primitives": [
        {
          "attributes": {
            "NORMAL": 1,
            "POSITION": 0,
            "TANGENT": 2,
            "TEXCOORD_0": 3
          },
          "indices": 4,
          "material": 0,
          "mode": 4
        }
      ]
    },
    {
      "primitives": [
        {
          "attributes": {
            "NORMAL": 6,
            "POSITION": 5,
            "TANGENT": 7,
            "TEXCOORD_0": 8
          },
          "indices": 9,
          "material": 1,
          "mode": 4
        }
      ]
    }
  ],
  "nodes": [
    {
      "children": [
        1
      ],
      "name": "RootNode (gltf orientation matrix)",
      "rotation": [
        -0.70710678118654746,
        -0,
        -0,
        0.70710678118654757
      ]
    },
    {
      "children": [
        2
      ],
      "name": "RootNode (model correction matrix)"
    },
    {
      "children": [
        3,
        4
      ],
      "name": "Masks.obj.cleaner.materialmerger.gles"
    },
    {
      "mesh": 0,
      "name": ""
    },
    {
      "mesh": 1,
      "name": ""
    }
  ],
  "samplers": [
    {
      "magFilter": 9729,
      "minFilter": 9987,
      "wrapS": 10497,
      "wrapT": 10497
    }
  ],
  "scene": 0,
  "scenes": [
    {
      "name": "OSG_Scene",
      "nodes": [
        0
      ]
    }
  ],
  "textures": [
    {
      "sampler": 0,
      "source": 0
    },
    {
      "sampler": 0,
      "source": 1
    }
  ]
}

