{
  "accessors": [
    {
      "bufferView": 2,
      "componentType": 5126,
      "count": 118,
      "max": [
        0.0097973598167300224,
        -0.77732902765274048,
        0.061050098389387131
      ],
      "min": [
        -0.0097973598167300224,
        -1,
        -0.072168096899986267
      ],
      "type": "VEC3"
    },
    {
      "bufferView": 2,
      "byteOffset": 1416,
      "componentType": 5126,
      "count": 118,
      "max": [
        1,
        0.45971918106079102,
        1
      ],
      "min": [
        -1,
        -1,
        -1
      ],
      "type": "VEC3"
    },
    {
      "bufferView": 3,
      "componentType": 5126,
      "count": 118,
      "max": [
        0.99953502416610718,
        0.99961501359939575,
        0.9994320273399353,
        1
      ],
      "min": [
        -0.413565993309021,
        -0.99969202280044556,
        -0.9994320273399353,
        1
      ],
      "type": "VEC4"
    },
    {
      "bufferView": 1,
      "componentType": 5126,
      "count": 118,
      "max": [
        0.19754700362682343,
        0.13862599432468414
      ],
      "min": [
        0.065177001059055328,
        0
      ],
      "type": "VEC2"
    },
    {
      "bufferView": 0,
      "componentType": 5125,
      "count": 282,
      "max": [
        117
      ],
      "min": [
        0
      ],
      "type": "SCALAR"
    },
    {
      "bufferView": 2,
      "byteOffset": 2832,
      "componentType": 5126,
      "count": 782,
      "max": [
        0.063249997794628143,
        0.69618099927902222,
        0.0067128399387001991
      ],
      "min": [
        -0.063249997794628143,
        -0.78710699081420898,
        -0.11359599977731705
      ],
      "type": "VEC3"
    },
    {
      "bufferView": 2,
      "byteOffset": 12216,
      "componentType": 5126,
      "count": 782,
      "max": [
        1,
        1,
        0.99996364116668701
      ],
      "min": [
        -1,
        -1,
        -0.99996364116668701
      ],
      "type": "VEC3"
    },
    {
      "bufferView": 3,
      "byteOffset": 1888,
      "componentType": 5126,
      "count": 782,
      "max": [
        0.99955099821090698,
        0.70982497930526733,
        0.99670702219009399,
        1
      ],
      "min": [
        -0.99996799230575562,
        -0.94227302074432373,
        -0.99996501207351685,
        1
      ],
      "type": "VEC4"
    },
    {
      "bufferView": 1,
      "byteOffset": 944,
      "componentType": 5126,
      "count": 782,
      "max": [
        0.9634850025177002,
        0.98153102397918701
      ],
      "min": [
        0.03497299924492836,
        0
      ],
      "type": "VEC2"
    },
    {
      "bufferView": 0,
      "byteOffset": 1128,
      "componentType": 5125,
      "count": 3474,
      "max": [
        781
      ],
      "min": [
        0
      ],
      "type": "SCALAR"
    },
    {
      "bufferView": 2,
      "byteOffset": 21600,
      "componentType": 5126,
      "count": 765,
      "max": [
        0.077066302299499512,
        0.69794201850891113,
        0.026425400748848915
      ],
      "min": [
        -0.064351797103881836,
        0.46568199992179871,
        -0.12901799380779266
      ],
      "type": "VEC3"
    },
    {
      "bufferView": 2,
      "byteOffset": 30780,
      "componentType": 5126,
      "count": 765,
      "max": [
        0.9998476505279541,
        0.99812561273574829,
        0.99698585271835327
      ],
      "min": [
        -0.9999314546585083,
        -0.99810522794723511,
        -0.99760502576828003
      ],
      "type": "VEC3"
    },
    {
      "bufferView": 3,
      "byteOffset": 14400,
      "componentType": 5126,
      "count": 765,
      "max": [
        0.99280500411987305,
        0.43090799450874329,
        0.99381697177886963,
        1
      ],
      "min": [
        -0.99709302186965942,
        -0.95689398050308228,
        -0.99953699111938477,
        1
      ],
      "type": "VEC4"
    },
    {
      "bufferView": 1,
      "byteOffset": 7200,
      "componentType": 5126,
      "count": 765,
      "max": [
        0.76200097799301147,
        1
      ],
      "min": [
        0,
        0
      ],
      "type": "VEC2"
    },
    {
      "bufferView": 0,
      "byteOffset": 15024,
      "componentType": 5125,
      "count": 3924,
      "max": [
        764
      ],
      "min": [
        0
      ],
      "type": "SCALAR"
    },
    {
      "bufferView": 2,
      "byteOffset": 39960,
      "componentType": 5126,
      "count": 1561,
      "max": [
        0.19856800138950348,
        1,
        0.43115699291229248
      ],
      "min": [
        -0.19856800138950348,
        0.59676802158355713,
        -0.43115699291229248
      ],
      "type": "VEC3"
    },
    {
      "bufferView": 2,
      "byteOffset": 58692,
      "componentType": 5126,
      "count": 1561,
      "max": [
        0.99885213375091553,
        0.99929726123809814,
        0.9998137354850769
      ],
      "min": [
        -0.99885213375091553,
        -0.99999374151229858,
        -0.9998137354850769
      ],
      "type": "VEC3"
    },
    {
      "bufferView": 3,
      "byteOffset": 26640,
      "componentType": 5126,
      "count": 1561,
      "max": [
        0.99974900484085083,
        0.99408501386642456,
        0.99973398447036743,
        1
      ],
      "min": [
        -0.98388797044754028,
        -0.99946099519729614,
        -0.99989300966262817,
        -1
      ],
      "type": "VEC4"
    },
    {
      "bufferView": 1,
      "byteOffset": 13320,
      "componentType": 5126,
      "count": 1561,
      "max": [
        0.95677798986434937,
        1
      ],
      "min": [
        0,
        0
      ],
      "type": "VEC2"
    },
    {
      "bufferView": 0,
      "byteOffset": 30720,
      "componentType": 5125,
      "count": 7410,
      "max": [
        1560
      ],
      "min": [
        0
      ],
      "type": "SCALAR"
    },
    {
      "bufferView": 2,
      "byteOffset": 77424,
      "componentType": 5126,
      "count": 876,
      "max": [
        0.13220700621604919,
        0.75155001878738403,
        0.36108198761940002
      ],
      "min": [
        -0.13220700621604919,
        0.41776499152183533,
        -0.13390399515628815
      ],
      "type": "VEC3"
    },
    {
      "bufferView": 2,
      "byteOffset": 87936,
      "componentType": 5126,
      "count": 876,
      "max": [
        0.99951261281967163,
        0.99978214502334595,
        0.99988538026809692
      ],
      "min": [
        -0.99951261281967163,
        -0.99940609931945801,
        -0.98609590530395508
      ],
      "type": "VEC3"
    },
    {
      "bufferView": 3,
      "byteOffset": 51616,
      "componentType": 5126,
      "count": 876,
      "max": [
        0.99977099895477295,
        0.99998998641967773,
        0.98901498317718506,
        1
      ],
      "min": [
        -0.99956399202346802,
        -0.99685502052307129,
        -0.99934297800064087,
        1
      ],
      "type": "VEC4"
    },
    {
      "bufferView": 1,
      "byteOffset": 25808,
      "componentType": 5126,
      "count": 876,
      "max": [
        0.84727597236633301,
        0.40039899945259094
      ],
      "min": [
        0.012470999732613564,
        0
      ],
      "type": "VEC2"
    },
    {
      "bufferView": 0,
      "byteOffset": 60360,
      "componentType": 5125,
      "count": 4368,
      "max": [
        875
      ],
      "min": [
        0
      ],
      "type": "SCALAR"
    }
  ],
  "asset": {
    "extras": {
      "author": "Devin Eggleston (https://sketchfab.com/deggleston)",
      "license": "CC-BY-4.0 (http://creativecommons.org/licenses/by/4.0/)",
      "source": "https://sketchfab.com/3d-models/skull-staff-0dfda2514e4849cdb60b153808b5f65c",
      "title": "Skull Staff"
    },
    "generator": "Sketchfab-4.61.0",
    "version": "2.0"
  },
  "bufferViews": [
    {
      "buffer": 0,
      "byteLength": 77832,
      "byteOffset": 0,
      "name": "floatBufferViews",
      "target": 34963
    },
    {
      "buffer": 0,
      "byteLength": 32816,
      "byteOffset": 77832,
      "byteStride": 8,
      "name": "floatBufferViews",
      "target": 34962
    },
    {
      "buffer": 0,
      "byteLength": 98448,
      "byteOffset": 110648,
      "byteStride": 12,
      "name": "floatBufferViews",
      "target": 34962
    },
    {
      "buffer": 0,
      "byteLength": 65632,
      "byteOffset": 209096,
      "byteStride": 16,
      "name": "floatBufferViews",
      "target": 34962
    }
  ],
  "buffers": [
    {
      "byteLength": 274728,
      "uri": "scene.bin"
    }
  ],
  "images": [
    {
      "uri": "textures/lambert4SG_baseColor.jpeg"
    },
    {
      "uri": "textures/lambert4SG_metallicRoughness.png"
    },
    {
      "uri": "textures/lambert4SG_normal.jpeg"
    },
    {
      "uri": "textures/Lambert_metallicRoughness.png"
    },
    {
      "uri": "textures/Lambert_baseColor.jpeg"
    },
    {
      "uri": "textures/Lambert_normal.jpeg"
    }
  ],
  "materials": [
    {
      "doubleSided": false,
      "name": "lambert4SG",
      "normalTexture": {
        "index": 2,
        "scale": 1,
        "texCoord": 0
      },
      "occlusionTexture": {
        "index": 1,
        "strength": 1,
        "texCoord": 0
      },
      "pbrMetallicRoughness": {
        "baseColorFactor": [
          1,
          1,
          1,
          1
        ],
        "baseColorTexture": {
          "index": 0,
          "texCoord": 0
        },
        "metallicFactor": 1,
        "metallicRoughnessTexture": {
          "index": 1,
          "texCoord": 0
        },
        "roughnessFactor": 1
      }
    },
    {
      "doubleSided": true,
      "emissiveFactor": [
        0,
        0,
        0
      ],
      "name": "Lambert",
      "normalTexture": {
        "index": 5,
        "scale": 1,
        "texCoord": 0
      },
      "occlusionTexture": {
        "index": 3,
        "strength": 1,
        "texCoord": 0
      },
      "pbrMetallicRoughness": {
        "baseColorFactor": [
          1,
          1,
          1,
          1
        ],
        "baseColorTexture": {
          "index": 4,
          "texCoord": 0
        },
        "metallicFactor": 1,
        "metallicRoughnessTexture": {
          "index": 3,
          "texCoord": 0
        },
        "roughnessFactor": 1
      }
    }
  ],
  "meshes": [
    {
      "name": "defaultMaterial",
      "primitives": [
        {
          "attributes": {
            "NORMAL": 1,
            "POSITION": 0,
            "TANGENT": 2,
            "TEXCOORD_0": 3
          },
          "indices": 4,
          "material": 1,
          "mode": 4
        }
      ]
    },
    {
      "name": "defaultMaterial",
      "primitives": [
        {
          "attributes": {
            "NORMAL": 6,
            "POSITION": 5,
            "TANGENT": 7,
            "TEXCOORD_0": 8
          },
          "indices": 9,
          "material": 1,
          "mode": 4
        }
      ]
    },
    {
      "name": "defaultMaterial",
      "primitives": [
        {
          "attributes": {
            "NORMAL": 11,
            "POSITION": 10,
            "TANGENT": 12,
            "TEXCOORD_0": 13
          },
          "indices": 14,
          "material": 1,
          "mode": 4
        }
      ]
    },
    {
      "name": "defaultMaterial",
      "primitives": [
        {
          "attributes": {
            "NORMAL": 16,
            "POSITION": 15,
            "TANGENT": 17,
            "TEXCOORD_0": 18
          },
          "indices": 19,
          "material": 0,
          "mode": 4
        }
      ]
    },
    {
      "name": "defaultMaterial",
      "primitives": [
        {
          "attributes": {
            "NORMAL": 21,
            "POSITION": 20,
            "TANGENT": 22,
            "TEXCOORD_0": 23
          },
          "indices": 24,
          "material": 0,
          "mode": 4
        }
      ]
    }
  ],
  "nodes": [
    {
      "children": [
        1
      ],
      "name": "RootNode (gltf orientation matrix)",
      "rotation": [
        -0.70710678118654746,
        -0,
        -0,
        0.70710678118654757
      ]
    },
    {
      "children": [
        2
      ],
      "name": "RootNode (model correction matrix)"
    },
    {
      "children": [
        3,
        5,
        7,
        9,
        11
      ],
      "matrix": [
        1,
        0,
        0,
        0,
        0,
        -4.3711390063094768e-08,
        0.999999999999999,
        0,
        0,
        -0.999999999999999,
        -4.3711390063094768e-08,
        0,
        0,
        0,
        0,
        1
      ],
      "name": "Collada visual scene group"
    },
    {
      "children": [
        4
      ],
      "name": "g"
    },
    {
      "mesh": 0,
      "name": "defaultMaterial"
    },
    {
      "children": [
        6
      ],
      "name": "g"
    },
    {
      "mesh": 1,
      "name": "defaultMaterial"
    },
    {
      "children": [
        8
      ],
      "name": "g"
    },
    {
      "mesh": 2,
      "name": "defaultMaterial"
    },
    {
      "children": [
        10
      ],
      "name": "g"
    },
    {
      "mesh": 3,
      "name": "defaultMaterial"
    },
    {
      "children": [
        12
      ],
      "name": "g"
    },
    {
      "mesh": 4,
      "name": "defaultMaterial"
    }
  ],
  "samplers": [
    {
      "magFilter": 9729,
      "minFilter": 9987,
      "wrapS": 10497,
      "wrapT": 10497
    }
  ],
  "scene": 0,
  "scenes": [
    {
      "name": "OSG_Scene",
      "nodes": [
        0
      ]
    }
  ],
  "textures": [
    {
      "sampler": 0,
      "source": 0
    },
    {
      "sampler": 0,
      "source": 1
    },
    {
      "sampler": 0,
      "source": 2
    },
    {
      "sampler": 0,
      "source": 3
    },
    {
      "sampler": 0,
      "source": 4
    },
    {
      "sampler": 0,
      "source": 5
    }
  ]
}

