{
  "accessors": [
    {
      "bufferView": 2,
      "componentType": 5126,
      "count": 61675,
      "max": [
        0.68751001358032227,
        1.6343100070953369,
        0.75304901599884033
      ],
      "min": [
        -1.8920400142669678,
        -3.6366701126098633,
        -1.0003900527954102
      ],
      "type": "VEC3"
    },
    {
      "bufferView": 2,
      "byteOffset": 740100,
      "componentType": 5126,
      "count": 61675,
      "max": [
        0.99999475479125977,
        0.99992221593856812,
        0.99999964237213135
      ],
      "min": [
        -0.99996435642242432,
        -0.99999922513961792,
        -0.9999997615814209
      ],
      "type": "VEC3"
    },
    {
      "bufferView": 3,
      "componentType": 5126,
      "count": 61675,
      "max": [
        0.99988210201263428,
        0.99957507848739624,
        0.99992883205413818,
        1
      ],
      "min": [
        -0.99997138977050781,
        -0.99999141693115234,
        -0.99960190057754517,
        -1
      ],
      "type": "VEC4"
    },
    {
      "bufferView": 1,
      "componentType": 5126,
      "count": 61675,
      "max": [
        0.99999898672103882,
        0.70968997478485107
      ],
      "min": [
        0,
        0
      ],
      "type": "VEC2"
    },
    {
      "bufferView": 0,
      "componentType": 5125,
      "count": 356874,
      "max": [
        61674
      ],
      "min": [
        0
      ],
      "type": "SCALAR"
    }
  ],
  "asset": {
    "extras": {
      "author": "maxxfoos (https://sketchfab.com/maxxfoos)",
      "license": "CC-BY-4.0 (http://creativecommons.org/licenses/by/4.0/)",
      "source": "https://sketchfab.com/3d-models/criature-creepy-horror-4a53a8a0b4314e899c451d00383723ce",
      "title": "Criature Creepy Horror"
    },
    "generator": "Sketchfab-7.27.0",
    "version": "2.0"
  },
  "bufferViews": [
    {
      "buffer": 0,
      "byteLength": 1427496,
      "byteOffset": 0,
      "name": "floatBufferViews",
      "target": 34963
    },
    {
      "buffer": 0,
      "byteLength": 493400,
      "byteOffset": 1427496,
      "byteStride": 8,
      "name": "floatBufferViews",
      "target": 34962
    },
    {
      "buffer": 0,
      "byteLength": 1480200,
      "byteOffset": 1920896,
      "byteStride": 12,
      "name": "floatBufferViews",
      "target": 34962
    },
    {
      "buffer": 0,
      "byteLength": 986800,
      "byteOffset": 3401096,
      "byteStride": 16,
      "name": "floatBufferViews",
      "target": 34962
    }
  ],
  "buffers": [
    {
      "byteLength": 4387896,
      "uri": "scene.bin"
    }
  ],
  "images": [
    {
      "uri": "textures/package2_baseColor.png"
    },
    {
      "uri": "textures/package2_metallicRoughness.png"
    }
  ],
  "materials": [
    {
      "doubleSided": true,
      "name": "package2",
      "occlusionTexture": {
        "index": 1,
        "strength": 1,
        "texCoord": 0
      },
      "pbrMetallicRoughness": {
        "baseColorFactor": [
          1,
          1,
          1,
          1
        ],
        "baseColorTexture": {
          "index": 0,
          "texCoord": 0
        },
        "metallicFactor": 0,
        "metallicRoughnessTexture": {
          "index": 1,
          "texCoord": 0
        },
        "roughnessFactor": 1
      }
    }
  ],
  "meshes": [
    {
      "primitives": [
        {
          "attributes": {
            "NORMAL": 1,
            "POSITION": 0,
            "TANGENT": 2,
            "TEXCOORD_0": 3
          },
          "indices": 4,
          "material": 0,
          "mode": 4
        }
      ]
    }
  ],
  "nodes": [
    {
      "children": [
        1
      ],
      "name": "RootNode (gltf orientation matrix)",
      "rotation": [
        -0.70710678118654746,
        -0,
        -0,
        0.70710678118654757
      ]
    },
    {
      "children": [
        2
      ],
      "name": "RootNode (model correction matrix)"
    },
    {
      "children": [
        3
      ],
      "name": "sketchfab_criature1mesh.obj.cleaner.materialmerger.gles"
    },
    {
      "mesh": 0,
      "name": ""
    }
  ],
  "samplers": [
    {
      "magFilter": 9729,
      "minFilter": 9987,
      "wrapS": 10497,
      "wrapT": 10497
    }
  ],
  "scene": 0,
  "scenes": [
    {
      "name": "OSG_Scene",
      "nodes": [
        0
      ]
    }
  ],
  "textures": [
    {
      "sampler": 0,
      "source": 0
    },
    {
      "sampler": 0,
      "source": 1
    }
  ]
}

