{
    "asset": {
        "version": "2.0",
        "generator": "THREE.GLTFExporter"
    },
    "scenes": [{
        "nodes": [0],
        "name": "AuxScene"
    }],
    "scene": 0,
    "nodes": [{
        "mesh": 0
    }],
    "bufferViews": [{
        "buffer": 0,
        "byteOffset": 0,
        "byteLength": 468,
        "target": 34962,
        "byteStride": 12
    }, {
        "buffer": 0,
        "byteOffset": 468,
        "byteLength": 468,
        "target": 34962,
        "byteStride": 12
    }],
    "buffers": [{
        "byteLength": 936,
        "uri": "data:application/octet-stream;base64,"
    }],
    "accessors": [{
        "bufferView": 0,
        "componentType": 5126,
        "count": 39,
        "max": [2.3403329849243164, 0.30000001192092896, 3.441870927810669],
        "min": [-2.4596669673919678, 0.10000000149011612, -3.4581289291381836],
        "type": "VEC3"
    }, {
        "bufferView": 1,
        "componentType": 5126,
        "count": 39,
        "max": [0, 1, 0],
        "min": [-0.04751143977046013, 0.9965881705284119, -0.07382134348154068],
        "type": "VEC3"
    }],
    "materials": [{
        "pbrMetallicRoughness": {
            "baseColorFactor": [0.5019607843137255, 0.5019607843137255, 0.5019607843137255, 1],
            "metallicFactor": 0,
            "roughnessFactor": 1
        }
    }],
    "meshes": [{
        "primitives": [{
            "mode": 4,
            "attributes": {
                "POSITION": 0,
                "NORMAL": 1
            },
            "material": 0
        }]
    }]
}