{
	"accessors" : 
	[
		{
			"bufferView" : 2,
			"byteOffset" : 0,
			"componentType" : 5126,
			"count" : 9768,
			"max" : 
			[
				0.9406006932258606,
				0.7372047901153564,
				0.8277258276939392,
				1
			],
			"min" : 
			[
				0.2195197343826294,
				0.1219857111573219,
				0.2932161688804626,
				1
			],
			"name" : "accessor_color_m0-PolyPaper6_-665828",
			"type" : "VEC4"
		},
		{
			"bufferView" : 2,
			"byteOffset" : 156288,
			"componentType" : 5126,
			"count" : 9792,
			"max" : 
			[
				0.6800203323364258,
				0.6800203323364258,
				0.6800203323364258,
				0.2509804
			],
			"min" : 
			[
				0.6800203323364258,
				0.6800203323364258,
				0.6800203323364258,
				0.2509804
			],
			"name" : "accessor_color_m1-PolyGlass24_-666382",
			"type" : "VEC4"
		},
		{
			"bufferView" : 2,
			"byteOffset" : 312960,
			"componentType" : 5126,
			"count" : 9804,
			"max" : 
			[
				0.6800203323364258,
				0.6800203323364258,
				0.6800203323364258,
				0.2509804
			],
			"min" : 
			[
				0.6800203323364258,
				0.6800203323364258,
				0.6800203323364258,
				0.2509804
			],
			"name" : "accessor_color_m2-PolyGlass24_-663476",
			"type" : "VEC4"
		},
		{
			"bufferView" : 2,
			"byteOffset" : 469824,
			"componentType" : 5126,
			"count" : 4088,
			"max" : 
			[
				0.6800203323364258,
				0.6800203323364258,
				0.6800203323364258,
				0.2509804
			],
			"min" : 
			[
				0.6800203323364258,
				0.6800203323364258,
				0.6800203323364258,
				0.2509804
			],
			"name" : "accessor_color_m3-PolyGlass24_-666664",
			"type" : "VEC4"
		},
		{
			"bufferView" : 2,
			"byteOffset" : 535232,
			"componentType" : 5126,
			"count" : 9624,
			"max" : 
			[
				0.9406006932258606,
				0.7372047901153564,
				0.8277258276939392,
				1
			],
			"min" : 
			[
				0.1904628723859787,
				0.1219857111573219,
				0.2932161688804626,
				1
			],
			"name" : "accessor_color_m4-PolyPaper7_-666380",
			"type" : "VEC4"
		},
		{
			"bufferView" : 2,
			"byteOffset" : 689216,
			"componentType" : 5126,
			"count" : 9940,
			"max" : 
			[
				0.6800203323364258,
				0.6800203323364258,
				0.6800203323364258,
				0.2509804
			],
			"min" : 
			[
				0.6800203323364258,
				0.6800203323364258,
				0.6800203323364258,
				0.2509804
			],
			"name" : "accessor_color_m5-PolyGlass24_-666614",
			"type" : "VEC4"
		},
		{
			"bufferView" : 2,
			"byteOffset" : 848256,
			"componentType" : 5126,
			"count" : 9616,
			"max" : 
			[
				0.9406006932258606,
				0.7372047901153564,
				0.8277258276939392,
				1
			],
			"min" : 
			[
				0.1904628723859787,
				0.1219857111573219,
				0.2932161688804626,
				1
			],
			"name" : "accessor_color_m6-PolyPaper6_-666616",
			"type" : "VEC4"
		},
		{
			"bufferView" : 2,
			"byteOffset" : 1002112,
			"componentType" : 5126,
			"count" : 6884,
			"max" : 
			[
				0.9406006932258606,
				0.7372047901153564,
				0.8277258276939392,
				1
			],
			"min" : 
			[
				0.1904628723859787,
				0.1219857111573219,
				0.2932161688804626,
				1
			],
			"name" : "accessor_color_m7-PolyPaper7_-666666",
			"type" : "VEC4"
		},
		{
			"bufferView" : 0,
			"byteOffset" : 0,
			"componentType" : 5123,
			"count" : 13956,
			"max" : 
			[
				9767
			],
			"min" : 
			[
				0
			],
			"name" : "accessor_indices_0_m0-PolyPaper6_-665828",
			"type" : "SCALAR"
		},
		{
			"bufferView" : 0,
			"byteOffset" : 27912,
			"componentType" : 5123,
			"count" : 13866,
			"max" : 
			[
				9791
			],
			"min" : 
			[
				0
			],
			"name" : "accessor_indices_0_m1-PolyGlass24_-666382",
			"type" : "SCALAR"
		},
		{
			"bufferView" : 0,
			"byteOffset" : 55644,
			"componentType" : 5123,
			"count" : 13884,
			"max" : 
			[
				9803
			],
			"min" : 
			[
				0
			],
			"name" : "accessor_indices_0_m2-PolyGlass24_-663476",
			"type" : "SCALAR"
		},
		{
			"bufferView" : 0,
			"byteOffset" : 83412,
			"componentType" : 5123,
			"count" : 5814,
			"max" : 
			[
				4087
			],
			"min" : 
			[
				0
			],
			"name" : "accessor_indices_0_m3-PolyGlass24_-666664",
			"type" : "SCALAR"
		},
		{
			"bufferView" : 0,
			"byteOffset" : 95040,
			"componentType" : 5123,
			"count" : 13908,
			"max" : 
			[
				9623
			],
			"min" : 
			[
				0
			],
			"name" : "accessor_indices_0_m4-PolyPaper7_-666380",
			"type" : "SCALAR"
		},
		{
			"bufferView" : 0,
			"byteOffset" : 122856,
			"componentType" : 5123,
			"count" : 14112,
			"max" : 
			[
				9939
			],
			"min" : 
			[
				0
			],
			"name" : "accessor_indices_0_m5-PolyGlass24_-666614",
			"type" : "SCALAR"
		},
		{
			"bufferView" : 0,
			"byteOffset" : 151080,
			"componentType" : 5123,
			"count" : 13764,
			"max" : 
			[
				9615
			],
			"min" : 
			[
				0
			],
			"name" : "accessor_indices_0_m6-PolyPaper6_-666616",
			"type" : "SCALAR"
		},
		{
			"bufferView" : 0,
			"byteOffset" : 178608,
			"componentType" : 5123,
			"count" : 9924,
			"max" : 
			[
				6883
			],
			"min" : 
			[
				0
			],
			"name" : "accessor_indices_0_m7-PolyPaper7_-666666",
			"type" : "SCALAR"
		},
		{
			"bufferView" : 1,
			"byteOffset" : 117216,
			"componentType" : 5126,
			"count" : 9768,
			"max" : 
			[
				0.9992245,
				0.9994085,
				0.9995297
			],
			"min" : 
			[
				-0.9992207,
				-0.9994087,
				-0.9995297
			],
			"name" : "accessor_normal_m0-PolyPaper6_-665828",
			"type" : "VEC3"
		},
		{
			"bufferView" : 1,
			"byteOffset" : 351936,
			"componentType" : 5126,
			"count" : 9792,
			"max" : 
			[
				0.9989803,
				0.9989392,
				0.9982148
			],
			"min" : 
			[
				-0.9989803,
				-0.9989392,
				-0.9982148
			],
			"name" : "accessor_normal_m1-PolyGlass24_-666382",
			"type" : "VEC3"
		},
		{
			"bufferView" : 1,
			"byteOffset" : 587088,
			"componentType" : 5126,
			"count" : 9804,
			"max" : 
			[
				0.999977,
				0.9993552,
				0.9991366
			],
			"min" : 
			[
				-0.999977,
				-0.9993552999999999,
				-0.9991366
			],
			"name" : "accessor_normal_m2-PolyGlass24_-663476",
			"type" : "VEC3"
		},
		{
			"bufferView" : 1,
			"byteOffset" : 753792,
			"componentType" : 5126,
			"count" : 4088,
			"max" : 
			[
				0.9993492,
				0.9931725,
				0.9993752
			],
			"min" : 
			[
				-0.9993492,
				-0.9931726,
				-0.9998602
			],
			"name" : "accessor_normal_m3-PolyGlass24_-666664",
			"type" : "VEC3"
		},
		{
			"bufferView" : 1,
			"byteOffset" : 918336,
			"componentType" : 5126,
			"count" : 9624,
			"max" : 
			[
				0.9992216,
				0.9988486,
				0.9997032
			],
			"min" : 
			[
				-0.9991149,
				-0.9988487,
				-0.9997032
			],
			"name" : "accessor_normal_m4-PolyPaper7_-666380",
			"type" : "VEC3"
		},
		{
			"bufferView" : 1,
			"byteOffset" : 1153104,
			"componentType" : 5126,
			"count" : 9940,
			"max" : 
			[
				0.9985047,
				0.9998353,
				0.9998512000000001
			],
			"min" : 
			[
				-0.9985046,
				-0.9998353,
				-0.9998512000000001
			],
			"name" : "accessor_normal_m5-PolyGlass24_-666614",
			"type" : "VEC3"
		},
		{
			"bufferView" : 1,
			"byteOffset" : 1387776,
			"componentType" : 5126,
			"count" : 9616,
			"max" : 
			[
				0.999613,
				0.9985905,
				0.9989417
			],
			"min" : 
			[
				-0.999657,
				-0.9985905,
				-0.9989417
			],
			"name" : "accessor_normal_m6-PolyPaper6_-666616",
			"type" : "VEC3"
		},
		{
			"bufferView" : 1,
			"byteOffset" : 1585776,
			"componentType" : 5126,
			"count" : 6884,
			"max" : 
			[
				0.9970611,
				0.997153,
				0.9988276
			],
			"min" : 
			[
				-0.997061,
				-0.9971531,
				-0.9988276
			],
			"name" : "accessor_normal_m7-PolyPaper7_-666666",
			"type" : "VEC3"
		},
		{
			"bufferView" : 1,
			"byteOffset" : 0,
			"componentType" : 5126,
			"count" : 9768,
			"max" : 
			[
				1.737125,
				1.632537,
				0.4590499
			],
			"min" : 
			[
				1.313393,
				0.7501713,
				-0.1280557
			],
			"name" : "accessor_position_m0-PolyPaper6_-665828",
			"type" : "VEC3"
		},
		{
			"bufferView" : 1,
			"byteOffset" : 234432,
			"componentType" : 5126,
			"count" : 9792,
			"max" : 
			[
				1.703944,
				1.640349,
				0.3294212
			],
			"min" : 
			[
				1.264795,
				0.8161033,
				-0.07702736
			],
			"name" : "accessor_position_m1-PolyGlass24_-666382",
			"type" : "VEC3"
		},
		{
			"bufferView" : 1,
			"byteOffset" : 469440,
			"componentType" : 5126,
			"count" : 9804,
			"max" : 
			[
				1.670303,
				1.594397,
				0.2770075
			],
			"min" : 
			[
				1.38682,
				0.8179296,
				-0.1188359
			],
			"name" : "accessor_position_m2-PolyGlass24_-663476",
			"type" : "VEC3"
		},
		{
			"bufferView" : 1,
			"byteOffset" : 704736,
			"componentType" : 5126,
			"count" : 4088,
			"max" : 
			[
				1.806597,
				1.527063,
				0.4654138
			],
			"min" : 
			[
				1.401162,
				0.7525921,
				-0.1402947
			],
			"name" : "accessor_position_m3-PolyGlass24_-666664",
			"type" : "VEC3"
		},
		{
			"bufferView" : 1,
			"byteOffset" : 802848,
			"componentType" : 5126,
			"count" : 9624,
			"max" : 
			[
				1.772013,
				1.653829,
				0.6636506
			],
			"min" : 
			[
				1.276882,
				0.6507061,
				-0.07037242
			],
			"name" : "accessor_position_m4-PolyPaper7_-666380",
			"type" : "VEC3"
		},
		{
			"bufferView" : 1,
			"byteOffset" : 1033824,
			"componentType" : 5126,
			"count" : 9940,
			"max" : 
			[
				1.788225,
				1.725216,
				0.5114324
			],
			"min" : 
			[
				1.26264,
				0.7443654,
				-0.2290078
			],
			"name" : "accessor_position_m5-PolyGlass24_-666614",
			"type" : "VEC3"
		},
		{
			"bufferView" : 1,
			"byteOffset" : 1272384,
			"componentType" : 5126,
			"count" : 9616,
			"max" : 
			[
				1.765793,
				1.56729,
				0.5519279
			],
			"min" : 
			[
				1.311748,
				0.8156267,
				-0.1917359
			],
			"name" : "accessor_position_m6-PolyPaper6_-666616",
			"type" : "VEC3"
		},
		{
			"bufferView" : 1,
			"byteOffset" : 1503168,
			"componentType" : 5126,
			"count" : 6884,
			"max" : 
			[
				1.682532,
				1.595805,
				0.519231
			],
			"min" : 
			[
				1.285041,
				0.7808154,
				-0.1029868
			],
			"name" : "accessor_position_m7-PolyPaper7_-666666",
			"type" : "VEC3"
		}
	],
	"asset" : 
	{
		"copyright" : "Unknown",
		"generator" : "glTF 1-to-2 Upgrader for Google Blocks",
		"version" : "2.0"
	},
	"bufferViews" : 
	[
		{
			"buffer" : 0,
			"byteLength" : 198456,
			"byteOffset" : 0,
			"name" : "ushortBufferView",
			"target" : 34963
		},
		{
			"buffer" : 0,
			"byteLength" : 1668384,
			"byteOffset" : 198456,
			"byteStride" : 12,
			"name" : "vec3BufferView",
			"target" : 34962
		},
		{
			"buffer" : 0,
			"byteLength" : 1112256,
			"byteOffset" : 1866840,
			"byteStride" : 16,
			"name" : "vec4BufferView",
			"target" : 34962
		}
	],
	"buffers" : 
	[
		{
			"byteLength" : 2979096,
			"name" : "model",
			"uri" : "model.bin"
		}
	],
	"materials" : 
	[
		{
			"alphaMode" : "OPAQUE",
			"doubleSided" : false,
			"name" : "BlocksPaper",
			"pbrMetallicRoughness" : 
			{
				"baseColorFactor" : 
				[
					1,
					1,
					1,
					1
				],
				"metallicFactor" : 0,
				"roughnessFactor" : 0.6
			}
		},
		{
			"alphaMode" : "BLEND",
			"doubleSided" : false,
			"name" : "BlocksGlass",
			"pbrMetallicRoughness" : 
			{
				"baseColorFactor" : 
				[
					0.2,
					0.2,
					1,
					0.3
				],
				"metallicFactor" : 1,
				"roughnessFactor" : 0.4
			}
		},
		{
			"alphaMode" : "OPAQUE",
			"doubleSided" : true,
			"name" : "BlocksGem",
			"pbrMetallicRoughness" : 
			{
				"baseColorFactor" : 
				[
					1,
					0.4,
					1,
					1
				],
				"metallicFactor" : 0,
				"roughnessFactor" : 0.1
			}
		}
	],
	"meshes" : 
	[
		{
			"name" : "mesh_m0-PolyPaper6_-665828",
			"primitives" : 
			[
				{
					"attributes" : 
					{
						"COLOR_0" : 0,
						"NORMAL" : 16,
						"POSITION" : 24
					},
					"indices" : 8,
					"material" : 0,
					"mode" : 4
				}
			]
		},
		{
			"name" : "mesh_m1-PolyGlass24_-666382",
			"primitives" : 
			[
				{
					"attributes" : 
					{
						"COLOR_0" : 1,
						"NORMAL" : 17,
						"POSITION" : 25
					},
					"indices" : 9,
					"material" : 1,
					"mode" : 4
				}
			]
		},
		{
			"name" : "mesh_m2-PolyGlass24_-663476",
			"primitives" : 
			[
				{
					"attributes" : 
					{
						"COLOR_0" : 2,
						"NORMAL" : 18,
						"POSITION" : 26
					},
					"indices" : 10,
					"material" : 1,
					"mode" : 4
				}
			]
		},
		{
			"name" : "mesh_m3-PolyGlass24_-666664",
			"primitives" : 
			[
				{
					"attributes" : 
					{
						"COLOR_0" : 3,
						"NORMAL" : 19,
						"POSITION" : 27
					},
					"indices" : 11,
					"material" : 1,
					"mode" : 4
				}
			]
		},
		{
			"name" : "mesh_m4-PolyPaper7_-666380",
			"primitives" : 
			[
				{
					"attributes" : 
					{
						"COLOR_0" : 4,
						"NORMAL" : 20,
						"POSITION" : 28
					},
					"indices" : 12,
					"material" : 0,
					"mode" : 4
				}
			]
		},
		{
			"name" : "mesh_m5-PolyGlass24_-666614",
			"primitives" : 
			[
				{
					"attributes" : 
					{
						"COLOR_0" : 5,
						"NORMAL" : 21,
						"POSITION" : 29
					},
					"indices" : 13,
					"material" : 1,
					"mode" : 4
				}
			]
		},
		{
			"name" : "mesh_m6-PolyPaper6_-666616",
			"primitives" : 
			[
				{
					"attributes" : 
					{
						"COLOR_0" : 6,
						"NORMAL" : 22,
						"POSITION" : 30
					},
					"indices" : 14,
					"material" : 0,
					"mode" : 4
				}
			]
		},
		{
			"name" : "mesh_m7-PolyPaper7_-666666",
			"primitives" : 
			[
				{
					"attributes" : 
					{
						"COLOR_0" : 7,
						"NORMAL" : 23,
						"POSITION" : 31
					},
					"indices" : 15,
					"material" : 0,
					"mode" : 4
				}
			]
		}
	],
	"nodes" : 
	[
		{
			"matrix" : 
			[
				1,
				0,
				0,
				0,
				0,
				1,
				0,
				0,
				0,
				0,
				1,
				0,
				0,
				0,
				0,
				1
			],
			"mesh" : 7,
			"name" : "node_MeshObject-1439795776-PolyPaper7"
		},
		{
			"matrix" : 
			[
				1,
				0,
				0,
				0,
				0,
				1,
				0,
				0,
				0,
				0,
				1,
				0,
				0,
				0,
				0,
				1
			],
			"mesh" : 3,
			"name" : "node_MeshObject-1958515840-PolyGlass24"
		},
		{
			"matrix" : 
			[
				1,
				0,
				0,
				0,
				0,
				1,
				0,
				0,
				0,
				0,
				1,
				0,
				0,
				0,
				0,
				1
			],
			"mesh" : 1,
			"name" : "node_MeshObject1444218112-PolyGlass24"
		},
		{
			"matrix" : 
			[
				1,
				0,
				0,
				0,
				0,
				1,
				0,
				0,
				0,
				0,
				1,
				0,
				0,
				0,
				0,
				1
			],
			"mesh" : 2,
			"name" : "node_MeshObject1842573312-PolyGlass24"
		},
		{
			"matrix" : 
			[
				1,
				0,
				0,
				0,
				0,
				1,
				0,
				0,
				0,
				0,
				1,
				0,
				0,
				0,
				0,
				1
			],
			"mesh" : 4,
			"name" : "node_MeshObject1962938176-PolyPaper7"
		},
		{
			"matrix" : 
			[
				1,
				0,
				0,
				0,
				0,
				1,
				0,
				0,
				0,
				0,
				1,
				0,
				0,
				0,
				0,
				1
			],
			"mesh" : 5,
			"name" : "node_MeshObject261571200-PolyGlass24"
		},
		{
			"matrix" : 
			[
				1,
				0,
				0,
				0,
				0,
				1,
				0,
				0,
				0,
				0,
				1,
				0,
				0,
				0,
				0,
				1
			],
			"mesh" : 0,
			"name" : "node_MeshObject672956288-PolyPaper6"
		},
		{
			"matrix" : 
			[
				1,
				0,
				0,
				0,
				0,
				1,
				0,
				0,
				0,
				0,
				1,
				0,
				0,
				0,
				0,
				1
			],
			"mesh" : 6,
			"name" : "node_MeshObject780291264-PolyPaper6"
		}
	],
	"scene" : 0,
	"scenes" : 
	[
		{
			"extras" : {},
			"name" : "defaultScene",
			"nodes" : 
			[
				6,
				2,
				3,
				1,
				4,
				5,
				7,
				0
			]
		}
	]
}