{
  "accessors": [
    {
      "bufferView": 2,
      "componentType": 5126,
      "count": 8641,
      "max": [
        0.44434192776679993,
        0.91021078824996948,
        0.1020209789276123
      ],
      "min": [
        -0.44474989175796509,
        -0.91039580106735229,
        -0.084113657474517822
      ],
      "type": "VEC3"
    },
    {
      "bufferView": 2,
      "byteOffset": 103692,
      "componentType": 5126,
      "count": 8641,
      "max": [
        0.9999997615814209,
        0.99996089935302734,
        1
      ],
      "min": [
        -0.99999809265136719,
        -1,
        -1
      ],
      "type": "VEC3"
    },
    {
      "bufferView": 3,
      "componentType": 5126,
      "count": 8641,
      "max": [
        0.99969494342803955,
        0.99999302625656128,
        0.99995672702789307,
        1
      ],
      "min": [
        -0.99999994039535522,
        -0.99997937679290771,
        -0.99994981288909912,
        -1
      ],
      "type": "VEC4"
    },
    {
      "bufferView": 3,
      "byteOffset": 138256,
      "componentType": 5126,
      "count": 8641,
      "max": [
        1,
        1,
        1,
        1
      ],
      "min": [
        1,
        1,
        1,
        1
      ],
      "type": "VEC4"
    },
    {
      "bufferView": 1,
      "componentType": 5126,
      "count": 8641,
      "max": [
        0.998046875,
        0.87824022769927979
      ],
      "min": [
        0.0019531359430402517,
        0.0019531359430402517
      ],
      "type": "VEC2"
    },
    {
      "bufferView": 0,
      "componentType": 5125,
      "count": 40734,
      "max": [
        8640
      ],
      "min": [
        0
      ],
      "type": "SCALAR"
    },
    {
      "bufferView": 2,
      "byteOffset": 207384,
      "componentType": 5126,
      "count": 105,
      "max": [
        0.30274775624275208,
        0.76369333267211914,
        -0.020522128790616989
      ],
      "min": [
        -0.30272641777992249,
        -0.76369333267211914,
        -0.020522128790616989
      ],
      "type": "VEC3"
    },
    {
      "bufferView": 2,
      "byteOffset": 208644,
      "componentType": 5126,
      "count": 105,
      "max": [
        0,
        0,
        1
      ],
      "min": [
        0,
        0,
        1
      ],
      "type": "VEC3"
    },
    {
      "bufferView": 3,
      "byteOffset": 276512,
      "componentType": 5126,
      "count": 105,
      "max": [
        -0.177088662981987,
        -0.85995793342590332,
        0,
        1
      ],
      "min": [
        -0.51036489009857178,
        -0.98419499397277832,
        0,
        1
      ],
      "type": "VEC4"
    },
    {
      "bufferView": 1,
      "byteOffset": 69128,
      "componentType": 5126,
      "count": 105,
      "max": [
        0.998046875,
        0.63702207803726196
      ],
      "min": [
        0.0019531345460563898,
        0.001953122322447598
      ],
      "type": "VEC2"
    },
    {
      "bufferView": 0,
      "byteOffset": 162936,
      "componentType": 5125,
      "count": 504,
      "max": [
        104
      ],
      "min": [
        0
      ],
      "type": "SCALAR"
    }
  ],
  "asset": {
    "extras": {
      "author": "luardimensi (https://sketchfab.com/luardimensi)",
      "license": "CC-BY-4.0 (http://creativecommons.org/licenses/by/4.0/)",
      "source": "https://sketchfab.com/3d-models/skull-mirror-325c36e2e1bd4893bc412642a81afd1f",
      "title": "Skull mirror"
    },
    "generator": "Sketchfab-7.17.0",
    "version": "2.0"
  },
  "bufferViews": [
    {
      "buffer": 0,
      "byteLength": 164952,
      "byteOffset": 0,
      "name": "floatBufferViews",
      "target": 34963
    },
    {
      "buffer": 0,
      "byteLength": 69968,
      "byteOffset": 164952,
      "byteStride": 8,
      "name": "floatBufferViews",
      "target": 34962
    },
    {
      "buffer": 0,
      "byteLength": 209904,
      "byteOffset": 234920,
      "byteStride": 12,
      "name": "floatBufferViews",
      "target": 34962
    },
    {
      "buffer": 0,
      "byteLength": 278192,
      "byteOffset": 444824,
      "byteStride": 16,
      "name": "floatBufferViews",
      "target": 34962
    }
  ],
  "buffers": [
    {
      "byteLength": 723016,
      "uri": "scene.bin"
    }
  ],
  "images": [
    {
      "uri": "textures/cermin3_baseColor.png"
    },
    {
      "uri": "textures/cermin3_metallicRoughness.png"
    },
    {
      "uri": "textures/cermin3_normal.png"
    }
  ],
  "materials": [
    {
      "doubleSided": true,
      "emissiveFactor": [
        0,
        0,
        0
      ],
      "name": "cermin3",
      "normalTexture": {
        "index": 2,
        "scale": 1,
        "texCoord": 0
      },
      "pbrMetallicRoughness": {
        "baseColorFactor": [
          1,
          1,
          1,
          1
        ],
        "baseColorTexture": {
          "index": 0,
          "texCoord": 0
        },
        "metallicFactor": 1,
        "metallicRoughnessTexture": {
          "index": 1,
          "texCoord": 0
        },
        "roughnessFactor": 1
      }
    },
    {
      "doubleSided": true,
      "emissiveFactor": [
        0,
        0,
        0
      ],
      "name": "Cermin",
      "pbrMetallicRoughness": {
        "baseColorFactor": [
          1,
          1,
          1,
          1
        ],
        "metallicFactor": 1,
        "roughnessFactor": 0
      }
    }
  ],
  "meshes": [
    {
      "name": "cermin3_cermin3_0",
      "primitives": [
        {
          "attributes": {
            "COLOR_0": 3,
            "NORMAL": 1,
            "POSITION": 0,
            "TANGENT": 2,
            "TEXCOORD_0": 4
          },
          "indices": 5,
          "material": 0,
          "mode": 4
        }
      ]
    },
    {
      "name": "Cermin_Cermin_0",
      "primitives": [
        {
          "attributes": {
            "NORMAL": 7,
            "POSITION": 6,
            "TANGENT": 8,
            "TEXCOORD_0": 9
          },
          "indices": 10,
          "material": 1,
          "mode": 4
        }
      ]
    }
  ],
  "nodes": [
    {
      "children": [
        1
      ],
      "name": "RootNode (gltf orientation matrix)",
      "rotation": [
        -0.70710678118654746,
        -0,
        -0,
        0.70710678118654757
      ]
    },
    {
      "children": [
        2
      ],
      "name": "RootNode (model correction matrix)"
    },
    {
      "children": [
        3
      ],
      "matrix": [
        1,
        0,
        0,
        0,
        0,
        0,
        1,
        0,
        0,
        -1,
        0,
        0,
        0,
        0,
        0,
        1
      ],
      "name": "b0d12d586ed94ee49cd9a8ba8a740f79.fbx"
    },
    {
      "children": [
        4,
        6
      ],
      "name": "RootNode"
    },
    {
      "children": [
        5
      ],
      "name": "cermin3"
    },
    {
      "mesh": 0,
      "name": "cermin3_cermin3_0"
    },
    {
      "children": [
        7
      ],
      "name": "Cermin"
    },
    {
      "mesh": 1,
      "name": "Cermin_Cermin_0"
    }
  ],
  "samplers": [
    {
      "magFilter": 9729,
      "minFilter": 9987,
      "wrapS": 10497,
      "wrapT": 10497
    }
  ],
  "scene": 0,
  "scenes": [
    {
      "name": "OSG_Scene",
      "nodes": [
        0
      ]
    }
  ],
  "textures": [
    {
      "sampler": 0,
      "source": 0
    },
    {
      "sampler": 0,
      "source": 1
    },
    {
      "sampler": 0,
      "source": 2
    }
  ]
}

